<svg width="73" height="20" viewBox="0 0 73 20" fill="none" xmlns="http://www.w3.org/2000/svg">
<path d="M15.2317 0C14.6104 0 13.9201 0.0689655 13.1953 0.241379C13.1953 0.241379 9.36401 1.17241 5.15308 5.10345C5.15308 5.10345 3.15117 7.13793 1.7015 9.75862C1.7015 9.75862 0.217322 12.5172 0.0102269 14.7586C0.0102269 14.7586 -0.196868 17.3448 1.2528 18.6552C1.2528 18.6552 2.90956 20.1724 6.60275 19.8966C6.60275 19.8966 8.88079 19.5862 11.4004 18.069C11.4004 18.069 12.574 17.3103 13.4024 16.5517C13.4024 16.5517 13.0227 17.8621 13.5749 18.7931C13.5749 18.7931 14.0927 19.6897 15.2317 19.8966C15.2317 19.8966 16.0946 20.069 17.2681 19.5862C17.2681 19.5862 18.0275 19.2414 18.5452 19C18.5452 19 19.5462 18.4483 20.5817 17.6552C20.5817 17.6552 20.3746 18.4138 20.8233 19.1034C20.8233 19.1034 21.3755 19.8621 22.342 19.9655C22.342 19.9655 24.9652 20.1724 28.6238 15.6897L26.0352 19.7931L28.3822 19.7586L30.3841 16.2414C30.3841 16.2414 32.4896 12.5862 32.9728 12.1724C32.9728 12.1724 34.0773 10.7241 35.7341 10.3793L36.8386 10.4483C36.8386 10.4483 37.3218 10.6552 37.3218 11.1724L36.528 11.0345C36.528 11.0345 36.0447 11.069 35.8031 11.5862C35.8031 11.5862 35.596 12.069 35.6651 12.5172C35.6651 12.5172 35.8031 12.8966 36.1828 13.069L36.4244 13.1379L37.2183 13C37.2183 13 38.6679 12.4483 40.6008 10.0345L40.1176 10.8276L38.4608 13.6207L36.5625 17C36.5625 17 36.0102 18.1034 36.2518 18.7931C36.2518 18.7931 36.4934 19.4138 37.3563 19.5862L39.1857 19.4483C39.1857 19.4483 40.1866 19.1379 41.0495 18.4483L42.2231 17.4828C42.2231 17.4828 43.6727 16.2414 44.9843 14.8276L44.9153 14.9655C44.9153 14.9655 43.7763 17.0345 43.5692 17.7586C43.5692 17.7586 43.086 19.2414 44.156 19.8276L45.3295 19.9655C45.3295 19.9655 46.2959 19.8276 47.2969 19.1034L48.9191 17.7586C48.9191 17.7586 50.2653 16.4828 50.9901 15.5517C50.9901 15.5517 50.6104 16.4138 50.5069 17C50.5069 17 50.1962 18.9655 52.0256 19.7586L53.7168 19.8966C53.7168 19.8966 54.4072 19.8621 55.4081 19.4828C55.4081 19.4828 57.8242 18.7241 61.1723 15.5862C61.1723 15.5862 62.8635 14.0345 64.0716 12.6207L59.8261 19.7241H61.8971L63.4503 17.1034L65.4522 13.8276C65.4522 13.8276 66.5912 12 68.6622 10.8621C68.6622 10.8621 69.5251 10.3448 70.1464 10.2759C70.1464 10.2759 70.8367 10.1379 70.9402 10.4828C70.9402 10.4828 70.0083 10.2759 69.7667 11.2414C69.7667 11.2414 69.5596 12.2069 70.3189 12.5172C70.3189 12.5172 70.9057 12.7241 71.3889 12.3793C71.3889 12.3793 71.8031 12.069 71.9412 11.4828C71.9412 11.4828 72.0793 10.8966 71.7686 10.4828C71.7686 10.4828 71.4235 9.96552 70.6641 9.93103C70.6641 9.93103 69.8012 9.89655 68.0754 11.0345C68.0754 11.0345 66.7983 11.8966 66.2461 12.3793L67.6957 9.96552H65.5903C65.5903 9.96552 63.5884 13.3448 60.0332 16.2759C60.0332 16.2759 56.5471 19.069 54.6143 19.1724C54.6143 19.1724 52.7159 19.3103 52.5433 17.8621C52.5433 17.8621 52.4052 17 52.923 15.7931C52.923 15.7931 54.0965 15.931 55.6842 15.4138C55.6842 15.4138 57.1684 14.931 58.411 14.1034C58.411 14.1034 59.7226 13.2069 60.2058 12.2759C60.2058 12.2759 60.7581 11.2069 60.1368 10.3103C60.1368 10.3103 58.9632 9.17241 56.4091 10.2414C56.4091 10.2414 53.7859 11.3448 51.8185 13.931L51.3007 14.6897L51.2662 14.7586L49.8511 16.3793L48.4014 17.8276C48.4014 17.8276 46.6756 19.5172 45.8127 19C45.8127 19 45.4676 18.7931 45.4676 18.2414C45.4676 18.2414 45.4676 17.6897 45.8472 17.069L49.8856 10.0345H48.0562C48.0562 10.0345 47.0553 11.6897 45.8817 13.2414C45.8817 13.2414 43.6037 16.2759 41.0841 18.0345C41.0841 18.0345 39.3928 19.3448 38.4263 18.8966C38.4263 18.8966 38.0121 18.6897 38.0467 18.1724C38.0467 18.1724 38.0812 17.5862 38.6334 16.7586L42.5682 10.0345L44.7772 10L45.0879 9.68966H42.8444L45.226 5.51724L43.224 5.55172C43.224 5.55172 41.8089 7.93104 40.7734 9.37931C40.7734 9.37931 38.806 11.9655 37.2183 12.6552C37.2183 12.6552 37.5289 12.2759 37.5289 11.7241L37.4944 11.2414C37.4944 11.2414 37.3563 10.6552 36.8041 10.3793L36.2864 10.2414L35.3544 10.3103C35.3544 10.3103 34.2499 10.5517 33.1799 11.4483L34.0428 10H32.0409C32.0409 10 30.2116 13.2069 27.83 16C27.83 16 24.7236 19.5517 23.0323 19.1379C23.0323 19.1379 22.5145 18.8966 22.48 18.2759C22.48 18.2759 22.48 17.6897 23.0323 16.7931L27.0706 9.96552L25.0687 10L24.4474 11.1034L24.0332 11.8966C24.0332 11.8966 24.1023 11.6552 24.0332 11.1379C24.0332 11.1379 23.8607 9.86207 22.6871 9.62069L21.7552 9.55172C21.7552 9.55172 19.3391 9.51724 16.6123 11.931C16.6123 11.931 14.7485 13.5862 13.2988 16.1379C13.2988 16.1379 10.4685 18.7931 7.43113 19.3448C7.43113 19.3448 4.77341 19.8966 3.59987 18.7241C3.59987 18.7241 2.32279 17.4483 2.32279 15.2069C2.32279 15.2069 2.3573 12.5517 4.22116 8.96552C4.22116 8.96552 6.22307 6 7.43113 4.68966C7.43113 4.68966 10.5721 1.24138 13.782 0.413793C13.782 0.413793 16.4398 -0.275862 17.8894 0.931035C17.8894 0.931035 19.1665 1.93103 19.2355 4.06897L20.0294 2.89655C20.0294 2.89655 20.9613 1.44828 21.7552 0.62069C21.7552 0.62069 20.9958 0.965517 20.0984 1.10345C20.0984 1.10345 18.9594 1.24138 18.4072 0.896552C18.5107 0.793103 17.2681 0.0344828 15.2317 0ZM22.0658 9.86207C22.8597 9.86207 23.3084 10.2414 23.3084 10.2414C24.2748 11.1379 23.5155 12.8276 23.5155 12.8276C21.9968 15.9655 19.7878 17.8276 19.7878 17.8276L18.4417 18.7586C16.3707 19.7586 15.4733 19.069 15.4733 19.069C14.7485 18.4828 15.0591 17.069 15.0591 17.069C15.2662 16.1379 16.0256 14.7241 16.0256 14.7241L17.5443 12.5172C18.8904 11 20.4781 10.2414 20.4781 10.2414C21.0994 9.96552 21.6516 9.86207 22.0658 9.86207ZM57.9968 10.1379H58.0658C58.0658 10.1379 58.5491 10.1724 58.6871 10.4483C58.6871 10.4483 58.8942 10.7586 58.8252 11.3103C58.8252 11.3103 58.6871 12.7931 57.0304 14.2069C57.0304 14.2069 55.1665 15.8276 52.992 15.7241L53.4062 14.8621C53.4062 14.8621 54.3381 13.0345 55.7533 11.5862C55.7878 11.5172 57.0994 10.1379 57.9968 10.1379Z" fill="#0B0B0B" fill-opacity="0.72"/>
<path d="M49.5059 7.00001C49.5059 7.00001 49.5059 7.37932 49.8165 7.6207C49.8165 7.6207 50.0581 7.86208 50.4378 7.86208C50.4378 7.86208 50.8175 7.86208 51.0246 7.6207C51.0246 7.6207 51.2662 7.31035 51.2662 7.00001L51.0246 6.37932C51.0246 6.37932 50.7139 6.13794 50.4378 6.13794C50.4378 6.13794 50.0581 6.13794 49.8165 6.37932C49.782 6.34484 49.5059 6.6207 49.5059 7.00001Z" fill="#0B0B0B" fill-opacity="0.72"/>
</svg>
