<svg width="133" height="20" viewBox="0 0 133 20" fill="none" xmlns="http://www.w3.org/2000/svg">
<path d="M40.5429 17H49.9763V13.9597H44.1329V11.4102H49.3087V8.57947H44.1329V6.02999H49.9763V3.00004H40.5429V17ZM61.6839 10.9701C60.3189 13.1498 58.9915 14.0599 57.2861 14.0599C55.0729 14.0599 53.7858 12.5 53.7858 9.7904C53.7858 7.22009 54.9729 5.94014 56.7977 5.94014C58.0044 5.94014 59.0019 6.48051 59.311 8.27999H62.9009C62.5126 4.8503 60.328 2.72009 56.838 2.72009C52.7883 2.72009 50.1257 5.58988 50.1257 9.98962C50.1257 14.4206 52.7883 17.28 57.1666 17.28C60.0292 17.28 61.9736 16.0795 63.2607 14.4597H68.1573V17H71.7265V3.00004H66.661L61.6839 10.9701ZM68.1573 11.6498H64.996L68.1573 6.50004V11.6498ZM32.8837 3.00004H27.6378V17H32.8837C37.0413 17 39.7247 14.25 39.7247 10C39.7247 5.75004 37.0413 3.00004 32.8837 3.00004ZM32.8331 13.9597H31.2277V6.02999H32.8331C34.9073 6.02999 36.0749 7.50004 36.0749 10C36.0749 12.4896 34.9073 13.9597 32.8331 13.9597ZM112.934 2.72009C108.716 2.72009 105.883 5.58988 105.883 10C105.883 14.4102 108.716 17.28 112.934 17.28C117.163 17.28 119.984 14.4102 119.984 10C119.984 5.58988 117.163 2.72009 112.934 2.72009ZM112.934 14.0599C110.86 14.0599 109.554 12.6706 109.554 10C109.554 7.32947 110.86 5.94014 112.934 5.94014C115.019 5.94014 116.315 7.32947 116.315 10C116.315 12.6706 115.019 14.0599 112.934 14.0599ZM72.624 6.02999H76.1451V17H79.7351V6.02999H83.2549V3.00004H72.624V6.02999ZM129.15 3.00004V10.7097L124.523 3.00004H120.803V17H124.273V8.97009L129.091 17H132.621V3.00004H129.15ZM100.798 3.00004H97.2069V17H106.213V13.9701H100.798V3.00004ZM92.5805 8.33988H87.7436V3.00004H84.1537V17H87.7436V11.3594H92.5805V17H96.1704V3.00004H92.5805V8.33988Z" fill="#0B0B0B" fill-opacity="0.72"/>
<path d="M17.5056 0C9.71007 0 0.0117188 8.08854 0.0117188 14.7917C0.0117188 18.2539 2.66393 20 6.16687 20C8.73855 20 11.8505 19.0573 14.8534 17.2409V3.86328C14.0534 5.23828 10.2893 10.7773 7.26697 13.7279C5.72656 15.2331 4.50566 15.8854 3.45491 15.8854C2.27428 15.8854 1.71318 15.0833 1.71318 13.888C1.71318 8.47005 10.8102 1.42448 16.8354 1.42448C19.3175 1.42448 20.9177 2.52865 20.9177 4.67578C20.9177 6.64323 19.5877 9.11198 17.316 11.3893V15.5339C21.2787 12.3932 23.6504 8.38932 23.6504 5.15755C23.6504 1.75651 21.0086 0 17.5056 0Z" fill="#0B0B0B" fill-opacity="0.72"/>
</svg>
