<svg width="69" height="21" viewBox="0 0 69 21" fill="none" xmlns="http://www.w3.org/2000/svg">
<path d="M0 8.15094H4.3125V3.69811H14.4885V0H0V8.15094Z" fill="#0B0B0B" fill-opacity="0.72"/>
<path d="M0 19.9999H14.4885V16.3018H4.3125V11.849H0V19.9999Z" fill="#0B0B0B" fill-opacity="0.72"/>
<path d="M13.6184 8.151H4.3125V11.8491H13.6184V8.151Z" fill="#0B0B0B" fill-opacity="0.72"/>
<path d="M32.5329 1.84905C31.9276 1.24527 31.171 0.792445 30.3766 0.528294C29.3552 0.150935 28.2582 -8.15839e-06 27.1611 0.0377277H18.1957V20.0377H22.5082V11.849H27.1233C28.2203 11.8868 29.2796 11.6981 30.3388 11.3585C31.1332 11.0566 31.8898 10.6038 32.495 10.0377C33.0246 9.50943 33.4407 8.86792 33.7055 8.15094C34.1973 6.71697 34.1973 5.1698 33.7055 3.77358C33.4786 3.01886 33.0625 2.37735 32.5329 1.84905ZM29.5065 7.0566C29.2796 7.35848 28.9769 7.5849 28.6365 7.73584C28.2582 7.88678 27.8421 7.99999 27.3881 8.07546C26.8963 8.15093 26.4046 8.15094 25.9128 8.15094H22.5082V3.69811H25.9506C26.4424 3.69811 26.9342 3.73584 27.4259 3.77358C27.8421 3.81131 28.2582 3.92452 28.6743 4.1132C29.0148 4.26414 29.3174 4.49056 29.5065 4.79244C29.7335 5.13207 29.847 5.50943 29.847 5.92452C29.847 6.33961 29.7335 6.71697 29.5065 7.0566Z" fill="#0B0B0B" fill-opacity="0.72"/>
<path d="M58.824 16.3019V0H54.4736V20H68.9999V16.3019H58.824Z" fill="#0B0B0B" fill-opacity="0.72"/>
<path d="M36.8453 8.15094H41.1578V3.69811H51.3717V0H36.8453V8.15094Z" fill="#0B0B0B" fill-opacity="0.72"/>
<path d="M41.1578 11.849H36.8453V19.9999H41.1578V11.849Z" fill="#0B0B0B" fill-opacity="0.72"/>
<path d="M50.4638 8.151H41.1578V11.8491H50.4638V8.151Z" fill="#0B0B0B" fill-opacity="0.72"/>
</svg>
