<?xml version="1.0" encoding="UTF-8" standalone="no"?>
<!DOCTYPE svg PUBLIC "-//W3C//DTD SVG 1.1//EN" "http://www.w3.org/Graphics/SVG/1.1/DTD/svg11.dtd">
<svg width="100%" height="100%" viewBox="0 0 285 214" version="1.1" xmlns="http://www.w3.org/2000/svg" xmlns:xlink="http://www.w3.org/1999/xlink" xml:space="preserve" xmlns:serif="http://www.serif.com/" style="fill-rule:evenodd;clip-rule:evenodd;stroke-linejoin:round;stroke-miterlimit:2;">
    <g transform="matrix(1,0,0,1,-62.713479,-67.64762)">
        <path d="M346.677,67.661C346.677,67.661 346.593,67.286 346.695,70.491C346.728,71.523 346.739,118.991 346.677,120.507C346.602,122.358 345.718,130.293 345.169,132.433C345.079,132.781 341.976,149.038 330.916,161.825C326.445,166.994 320.891,173.892 305.352,181.15C301.762,182.826 292.575,185.431 290.523,185.659C281.533,186.658 281.55,186.828 272.5,186.831C271.06,186.832 271.072,186.829 254.498,186.81C250.647,186.806 248.277,186.831 248.277,186.831C248.24,188.203 248.268,276.123 248.277,277.502C248.287,279.155 248.277,281.513 248.277,281.513C248.277,281.513 245.689,281.507 245.501,281.513C241.773,281.632 226.509,281.537 215.568,279.132C213.101,278.59 212.037,278.711 209.598,278.044C206.243,277.126 206.163,277.531 203.443,276.706C196.515,274.604 168.203,267.986 138.867,242.096C119.937,225.39 108.637,205.064 106.62,201.436C104.579,197.765 94.467,176.789 66.475,173.779C63.524,173.462 62.714,173.779 62.714,173.779C62.714,173.779 62.712,82.18 62.714,74.5C62.715,70.668 62.714,67.661 62.714,67.661C62.714,67.661 87.036,69.019 95.55,71.255C98.953,72.149 99.022,71.817 102.395,72.839C104.978,73.622 104.988,73.503 107.544,74.343C108.416,74.63 116.116,76.521 128.554,82.398C161.897,98.153 179.117,120.145 185.641,128.396C194.412,139.487 198.22,148.956 203.208,155.709C206.79,160.559 210.523,165.764 215.568,168.915C220.614,172.067 228.198,173.522 233.48,174.62C237.987,175.556 247.26,175.502 247.26,175.502L247.26,67.661L346.677,67.661Z" style="fill:rgb(1,1,1);"/>
    </g>
</svg>
