<svg width="181" height="20" viewBox="0 0 181 20" fill="none" xmlns="http://www.w3.org/2000/svg">
<path d="M17.4293 0L17.3892 0.16C17.2687 0.5 15.0197 7.82 14.5378 9.66L11.6865 0H3.4939L0 19.22H7.44963L8.73475 11.5C8.79498 10.98 8.83514 10.46 8.87531 9.94C8.9757 10.5 9.11626 11.06 9.2769 11.64L12.068 19.22H16.7868L19.8791 11.18C20.0397 10.78 20.1401 10.36 20.2405 9.92L21.5658 19.22H29.0154L25.5014 0H17.4293ZM139.435 10.18C139.435 11.54 139.736 13.84 137.547 13.84C135.479 13.84 135.64 11.52 135.64 10.18V0H127.588V11.8C127.588 17.08 131.122 20 137.547 20C143.973 20 147.507 17.1 147.507 11.8V0H139.455L139.435 10.18ZM153.049 0V6.64H157.567V19.22H165.619V6.64H170.137V0H153.049ZM111.323 0L111.283 0.16C111.182 0.5 108.933 7.84 108.451 9.68L105.58 0H97.4075L93.9136 19.22H101.363L102.648 11.5C102.709 10.98 102.749 10.46 102.789 9.94C102.889 10.5 103.03 11.04 103.19 11.64L105.982 19.22H110.7L113.793 11.16C113.953 10.76 114.054 10.34 114.154 9.9L115.499 19.22H122.949L119.415 0H111.323ZM39.7582 0L33.0113 19.22H40.5011L41.2641 16.88H47.9708L48.6937 19.22H56.5449L49.5973 0H39.7582ZM46.505 12.2H42.6898L44.6376 6.02L46.505 12.2ZM77.8698 0L77.8296 0.16C77.7292 0.5 75.4802 7.84 74.9983 9.68L72.1269 0H63.9544L60.4404 19.22H67.8901L69.1752 11.5C69.2354 10.98 69.2756 10.46 69.3157 9.94C69.4161 10.5 69.5567 11.04 69.7173 11.64L72.5084 19.22H77.2272L80.3195 11.16C80.4601 10.76 80.5805 10.36 80.6809 9.9L82.0263 19.22H89.4759L85.9619 0H77.8698ZM177.647 3.12C178.108 3.12 178.53 3.08 178.53 2.54C178.53 2.1 178.068 2.04 177.707 2.04H176.944V3.12H177.647ZM176.944 5.2H176.321V1.54H177.767C178.691 1.54 179.153 1.84 179.153 2.6C179.153 3.26 178.731 3.54 178.169 3.6L179.233 5.2H178.51L177.526 3.64H176.944V5.2ZM177.627 0.58C176.141 0.58 174.976 1.7 174.976 3.32C174.976 4.82 176 6.06 177.627 6.06C179.092 6.06 180.257 4.94 180.257 3.32C180.257 1.7 179.092 0.58 177.627 0.58ZM177.627 6.62C175.639 6.62 174.233 5.2 174.233 3.32C174.233 1.34 175.799 0.02 177.627 0.02C179.434 0.02 181 1.34 181 3.32C181 5.3 179.434 6.62 177.627 6.62Z" fill="#0B0B0B" fill-opacity="0.72"/>
</svg>
