<svg width="333" height="20" viewBox="0 0 333 20" fill="none" xmlns="http://www.w3.org/2000/svg">
<path d="M10.7066 9.53068H13.1225C18.0519 9.53068 20.7136 8.46011 20.7136 5.13159C20.7136 2.62214 17.9037 1.01423 13.5165 1.01423C12.0381 1.01423 11.397 1.09942 10.7066 1.12691V9.53068ZM4.39762 2.98908C4.39762 0.930393 2.42641 0.845174 0.89722 0.845174H0.0104523V0C1.58769 0 4.64333 0.112684 7.65093 0.112684C10.6091 0.112684 12.9743 0 15.5865 0C21.798 0 27.3191 0.957877 27.3191 4.96255C27.3191 7.50086 24.3609 9.05106 20.4665 9.9251L28.8963 17.1456C30.2772 18.3303 31.2628 18.6683 33.6774 18.8374V19.6825C32.0508 19.6825 30.4735 19.5698 28.8469 19.5698C27.3191 19.5698 25.7418 19.6825 24.214 19.6825C20.4171 16.835 17.1652 13.7882 13.9599 10.5463H10.7066V16.5808C10.7066 18.7521 12.4815 18.8374 14.7492 18.8374H15.636V19.6825C12.8274 19.6825 9.96806 19.5698 7.15813 19.5698C4.79159 19.5698 2.47446 19.6825 0.0104523 19.6825V18.8374H0.89722C2.72155 18.8374 4.39762 18.3577 4.39762 17.3133V2.98908Z" fill="#0B0B0B" fill-opacity="0.72"/>
<path d="M43.856 19.049H44.3736C45.7051 19.049 47.1094 18.9432 47.1094 17.8437V6.7601C47.1094 5.65929 45.7051 5.55484 44.3736 5.55484H43.856V4.91992C45.2988 4.91992 47.5157 5.00375 49.3277 5.00375C51.1767 5.00375 53.395 4.91992 55.1328 4.91992V5.55484H54.6153C53.2838 5.55484 51.8795 5.65929 51.8795 6.7601V17.8437C51.8795 18.9432 53.2838 19.049 54.6153 19.049H55.1328L55.1315 19.6825C53.3579 19.6825 51.1396 19.5973 49.2906 19.5973C47.48 19.5973 45.2988 19.6825 43.856 19.6825V19.049Z" fill="#0B0B0B" fill-opacity="0.72"/>
<path d="M92.4361 9.27649C91.3997 7.22468 89.699 5.53293 84.1546 5.53293C78.0914 5.53293 74.9108 8.26226 74.9108 11.9632C74.9108 15.4951 78.0543 19.0697 85.0414 19.0697C88.9975 19.0697 91.6221 17.6528 92.583 15.5377L93.618 15.6216C93.1376 16.765 92.8781 17.9056 92.6942 19.0491C90.5487 19.5782 87.6289 20.0001 84.2273 20.0001C75.9101 20.0001 69.7357 17.3985 69.7357 12.0897C69.7357 7.35249 76.4276 4.60254 84.042 4.60254C88.3688 4.60254 89.7731 5.36389 93.2488 5.65936C93.2117 6.82338 93.2858 8.00803 93.5439 9.19266L92.4361 9.27649Z" fill="#0B0B0B" fill-opacity="0.72"/>
<path d="M114.69 17.8437C114.69 18.9844 116.244 19.049 117.574 19.049H118.277V19.6825C116.649 19.6825 114.284 19.5973 112.288 19.5973C110.402 19.5973 108.184 19.6825 106.705 19.6825V19.049H107.223C108.554 19.049 109.959 18.9432 109.959 17.8437V6.7601C109.959 5.65929 108.554 5.55484 107.223 5.55484H106.705V4.91992C108.184 4.91992 110.402 5.00375 112.288 5.00375C114.284 5.00375 116.649 4.91992 118.277 4.91992V5.55484H117.574C116.244 5.55484 114.69 5.61806 114.69 6.7601V11.3915H128.111V6.7601C128.111 5.61806 126.557 5.55484 125.227 5.55484H124.526V4.91992C126.151 4.91992 128.518 5.00375 130.514 5.00375C132.4 5.00375 134.618 4.91992 136.096 4.91992V5.55484H135.579C134.249 5.55484 132.843 5.65929 132.843 6.7601V17.8437C132.843 18.9432 134.249 19.049 135.579 19.049H136.096V19.6825C134.618 19.6825 132.4 19.5973 130.514 19.5973C128.518 19.5973 126.151 19.6825 124.526 19.6825V19.049H125.227C126.557 19.049 128.111 18.9844 128.111 17.8437V12.5761H114.69V17.8437Z" fill="#0B0B0B" fill-opacity="0.72"/>
<path d="M149.332 19.049H149.85C151.181 19.049 152.585 18.9432 152.585 17.8437V6.7601C152.585 5.65929 151.181 5.55484 149.85 5.55484H149.332V4.91992C151.587 4.91992 155.432 5.00375 158.537 5.00375C161.642 5.00375 165.487 4.91992 168.002 4.91992C167.927 5.8297 167.965 7.22461 168.076 8.15638L166.966 8.32541C166.782 6.94975 166.338 5.85032 162.456 5.85032H157.317V11.3915H161.717C163.935 11.3915 164.415 10.6727 164.638 9.53066H165.747C165.673 10.3552 165.636 11.1798 165.636 12.0044C165.636 12.8097 165.673 13.6123 165.747 14.4162L164.638 14.5427C164.415 13.2742 164.306 12.4497 161.754 12.4497H157.317V17.3778C157.317 18.7521 159.461 18.7521 161.828 18.7521C166.264 18.7521 168.223 18.5831 169.332 16.1726L170.369 16.3197C169.887 17.4411 169.444 18.5625 169.111 19.6825C166.745 19.6825 162.494 19.5973 159.166 19.5973C155.839 19.5973 151.439 19.6825 149.332 19.6825V19.049Z" fill="#0B0B0B" fill-opacity="0.72"/>
<path d="M200.387 15.9816L209.149 4.91992C210.258 4.91992 211.59 5.00375 212.92 5.00375C214.216 5.00375 215.546 4.91992 216.839 4.91992V5.55484H216.505C215.398 5.55484 213.144 5.59608 213.068 6.52647C213.031 7.07756 213.179 7.71111 213.253 8.17699L214.658 17.8643C214.806 18.9212 215.73 19.0064 217.948 19.049V19.6825C216.21 19.6413 214.4 19.5973 212.625 19.5973C210.592 19.5973 208.557 19.6413 206.526 19.6825V19.049C208.448 18.9844 209.704 18.9844 209.704 18.054C209.704 17.7998 209.704 17.5675 209.667 17.0192L208.633 8.09179H208.557L199.13 20H198.244L189.297 8.32541H189.223L187.965 17.6101C187.965 18.2863 188.262 18.6243 188.742 18.8167C189.297 19.0064 190.073 19.027 191.108 19.049H191.551V19.6825C189.889 19.6413 188.186 19.5973 186.524 19.5973C185.081 19.5973 183.603 19.6413 182.162 19.6825V19.049H182.679C185.599 18.9844 185.71 18.2656 186.044 16.7429L187.153 10.8637C187.448 9.36162 187.596 7.98734 187.596 7.14078C187.596 5.95614 186.007 5.55484 184.38 5.55484H183.899V4.91992C185.415 4.91992 186.893 5.00375 188.409 5.00375C189.518 5.00375 190.627 4.91992 191.736 4.91992L200.387 15.9816Z" fill="#0B0B0B" fill-opacity="0.72"/>
<path d="M243.125 19.0697C250.299 19.0697 251.555 15.4539 251.555 12.3645C251.555 9.27649 248.634 5.53293 242.498 5.53293C236.027 5.53293 234.105 8.8326 234.105 11.6664C234.105 15.4539 237.137 19.0697 243.125 19.0697ZM242.57 4.60254C250.446 4.60254 256.731 7.39371 256.731 11.8986C256.731 16.765 250.631 20.0001 242.756 20.0001C234.919 20.0001 228.928 16.9546 228.928 12.4071C228.928 8.00801 234.88 4.60254 242.57 4.60254Z" fill="#0B0B0B" fill-opacity="0.72"/>
<path d="M291.631 15.5157L291.705 15.4745V7.54207C291.705 5.80772 289.596 5.55484 288.487 5.55484H287.675V4.91992C289.412 4.91992 291.113 5.00375 292.851 5.00375C294.367 5.00375 295.882 4.91992 297.398 4.91992V5.55484H296.843C295.29 5.55484 293.553 5.72389 293.553 8.24021V17.8643C293.553 18.6037 293.59 19.3444 293.775 20H292.371L273.33 7.85953V16.5739C273.33 18.4141 273.959 19.049 276.806 19.049H277.434V19.6825C275.845 19.6825 274.254 19.5973 272.665 19.5973C271.002 19.5973 269.301 19.6825 267.637 19.6825V19.049H268.155C270.705 19.049 271.482 18.054 271.482 16.3622V7.45824C271.482 6.27361 269.781 5.55484 268.118 5.55484H267.637V4.91992C269.042 4.91992 270.483 5.00375 271.889 5.00375C272.998 5.00375 274.07 4.91992 275.179 4.91992L291.631 15.5157Z" fill="#0B0B0B" fill-opacity="0.72"/>
<path d="M311.816 5.97815C309.044 5.97815 308.932 6.35746 308.378 7.90216H307.269C307.417 7.30984 307.601 6.71751 307.713 6.10458C307.86 5.51226 307.934 4.91995 307.934 4.30702H308.821C309.118 4.94056 310.042 4.91994 311.039 4.91994H330.116C331.115 4.91994 332.039 4.89795 332.113 4.2644L333 4.34825C332.853 4.91995 332.704 5.49165 332.594 6.06198C332.52 6.63369 332.52 7.20401 332.52 7.77572L331.41 8.00798C331.336 7.22464 331.152 5.97815 328.675 5.97815H322.611V17.2295C322.611 18.858 323.906 19.049 325.681 19.049H326.382V19.6826C324.94 19.6826 322.353 19.5973 320.356 19.5973C318.138 19.5973 315.55 19.6826 314.109 19.6826V19.049H314.81C316.845 19.049 317.88 18.9432 317.88 17.272V5.97815H311.816Z" fill="#0B0B0B" fill-opacity="0.72"/>
<path d="M0 19.2958C0 19.1109 0.383398 18.9847 1.22563 18.8926C1.89973 18.8188 2.78242 18.6714 3.18716 18.565C4.55202 18.2063 4.53019 18.3559 4.46795 9.78854L4.41227 2.12311L3.95492 1.63592C3.43727 1.0845 2.21417 0.717589 0.893667 0.717589C0.212189 0.717589 0 0.644371 0 0.409247C0 0.131893 1.0395 0.108992 10.3443 0.181345C19.0817 0.24929 20.9019 0.312196 22.0613 0.586317C23.939 1.03022 25.8362 2.02282 26.5608 2.94046C27.0653 3.57926 27.1534 3.85947 27.1534 4.82472C27.1534 5.707 27.0465 6.11477 26.6716 6.66261C25.9915 7.65626 24.3335 8.68371 22.475 9.26322C21.6003 9.53593 20.7705 9.7996 20.631 9.84916C20.3092 9.96342 28.9869 17.4128 30.2323 18.0914C30.7399 18.368 31.6671 18.6584 32.2927 18.7366C33.1492 18.8437 33.4463 18.9635 33.496 19.2219C33.5573 19.5407 33.2302 19.565 28.8657 19.565H24.1695L22.4291 18.1737C20.6082 16.7181 16.1455 12.71 14.8148 11.3349L14.0397 10.5339H12.2987H10.5577L10.6226 14.0638C10.6866 17.5429 10.6947 17.6007 11.1858 18.0921C11.697 18.6035 13.1895 18.9724 14.7566 18.9748C15.279 18.9757 15.492 19.0613 15.492 19.2705C15.492 19.5273 14.5006 19.565 7.74598 19.565C1.31578 19.565 0 19.5193 0 19.2958ZM16.5545 9.34398C18.2068 9.05538 19.4001 8.40558 20.0968 7.41511C20.5934 6.70906 20.682 6.39862 20.6851 5.35499C20.6896 3.8 20.0963 2.81099 18.7065 2.05658C17.0199 1.14108 13.9317 0.704978 11.4993 1.03877L10.5894 1.16361V5.35796V9.5523H12.9756C14.288 9.5523 15.8985 9.45855 16.5545 9.34398Z" fill="#0B0B0B" fill-opacity="0.72"/>
<path d="M0 19.301C0 19.1206 0.496035 18.9669 1.56946 18.8149C3.74931 18.5063 4.25858 18.2101 4.41221 17.1612C4.47953 16.7016 4.50708 13.1364 4.47344 9.2386C4.42352 3.45501 4.3608 2.08958 4.1324 1.81431C3.64935 1.2321 2.82323 0.923892 1.38781 0.790333C0.37677 0.696266 0 0.585137 0 0.38105C0 -0.0556879 20.113 0.124484 22.0155 0.578251C25.1103 1.31642 26.9119 2.62519 27.1657 4.31961C27.4997 6.54964 25.9086 8.16967 22.2167 9.35826L20.5251 9.90289L21.0971 10.4404C22.1705 11.4489 26.9601 15.5678 28.5789 16.8744C30.164 18.1539 31.2821 18.6636 32.8452 18.8194C33.2184 18.8566 33.4555 19.0028 33.4969 19.2214C33.5574 19.5409 33.2316 19.5649 28.8478 19.5649H24.1335L22.1974 18.0058C20.3926 16.5524 15.2732 11.9043 14.432 10.9554C14.1025 10.5836 13.8517 10.5339 12.3046 10.5339H10.5506L10.623 13.9206C10.6723 16.2281 10.7772 17.4533 10.9523 17.7656C11.304 18.3927 12.1747 18.7144 13.9722 18.8811C15.0671 18.9827 15.492 19.098 15.492 19.2935C15.492 19.52 14.208 19.5649 7.74598 19.5649C1.39038 19.5649 0 19.5176 0 19.301ZM16.2764 9.34737C17.8605 9.09637 19.3929 8.37219 19.9575 7.60772C20.5889 6.75273 20.8385 5.41657 20.5678 4.34052C20.2948 3.25491 19.128 2.15087 17.7258 1.65139C16.2907 1.14017 13.8419 0.862869 12.1144 1.01595L10.5894 1.1511V5.35169V9.55229L12.7956 9.5508C14.009 9.54998 15.5753 9.45845 16.2764 9.34737Z" fill="#0B0B0B" fill-opacity="0.72"/>
<path d="M43.9266 19.3966C43.9266 19.304 44.4781 19.1724 45.1522 19.1041C46.1325 19.0049 46.4662 18.8792 46.8191 18.4762C47.2548 17.9787 47.2603 17.9023 47.2603 12.3008C47.2603 6.69936 47.2548 6.62302 46.8191 6.12542C46.4662 5.72247 46.1325 5.59676 45.1522 5.49753C42.4478 5.22376 44.2187 5.03674 49.5154 5.03674C53.1106 5.03674 55.1043 5.10678 55.1043 5.23307C55.1043 5.34105 54.8175 5.43151 54.467 5.43408C53.4375 5.44165 52.2905 5.77419 52.021 6.14327C51.8312 6.40308 51.7706 7.89387 51.7706 12.3008C51.7706 16.7078 51.8312 18.1986 52.021 18.4584C52.2905 18.8275 53.4375 19.16 54.467 19.1676C54.8175 19.1702 55.1043 19.2606 55.1043 19.3686C55.1043 19.4949 53.1106 19.5649 49.5154 19.5649C46.4416 19.5649 43.9266 19.4892 43.9266 19.3966Z" fill="#0B0B0B" fill-opacity="0.72"/>
<path d="M80.7936 19.7439C75.6039 19.2177 71.7642 17.3631 70.4975 14.7709C68.0578 9.77875 72.6076 5.65164 81.4534 4.83274C84.1277 4.58518 86.2479 4.69055 89.7694 5.24611C91.093 5.45491 92.3946 5.62576 92.6619 5.62576C93.1011 5.62576 93.149 5.70612 93.1596 6.46015C93.166 6.91906 93.2403 7.71417 93.3246 8.22708C93.4775 9.15681 93.4762 9.15964 92.9207 9.15964C92.6142 9.15964 92.3635 9.08374 92.3635 8.99096C92.3635 8.62094 90.6983 6.95872 89.9374 6.56924C88.084 5.62053 85.1213 5.25223 82.2103 5.60863C78.771 6.02972 76.5368 7.31362 75.4707 9.48157C74.9294 10.5824 74.8742 10.859 74.939 12.1446C75.143 16.1881 78.3078 18.602 84.0361 19.0833C87.5347 19.3772 91.0187 18.1864 92.1842 16.2983C92.4615 15.8492 92.7403 15.6384 93.0572 15.6384C93.5108 15.6384 93.5161 15.6573 93.2623 16.3772C93.1191 16.7836 92.9386 17.4915 92.8612 17.9504C92.7776 18.4458 92.5766 18.8618 92.3665 18.9744C91.1374 19.6329 84.2295 20.0923 80.7936 19.7439Z" fill="#0B0B0B" fill-opacity="0.72"/>
<path d="M106.875 19.394C106.875 19.2999 107.388 19.1648 108.016 19.0937C110.139 18.8532 110.013 19.2847 110.013 12.3008C110.013 5.31695 110.139 5.74843 108.016 5.50793C105.451 5.21745 107.195 5.03674 112.562 5.03674C117.962 5.03674 119.795 5.22803 116.947 5.49431C114.674 5.70683 114.46 6.06255 114.562 9.45409L114.621 11.4174H121.386H128.152L128.207 9.04129C128.254 7.00296 128.212 6.60391 127.913 6.23394C127.538 5.77073 126.446 5.44164 125.259 5.43408C124.855 5.43151 124.524 5.34105 124.524 5.23307C124.524 5.10662 126.583 5.03674 130.309 5.03674C134.035 5.03674 136.094 5.10662 136.094 5.23307C136.094 5.34105 135.807 5.43151 135.457 5.43408C134.427 5.44165 133.28 5.77419 133.011 6.14327C132.821 6.40308 132.76 7.89387 132.76 12.3008C132.76 16.7078 132.821 18.1986 133.011 18.4584C133.28 18.8275 134.427 19.16 135.457 19.1676C135.807 19.1702 136.094 19.2606 136.094 19.3686C136.094 19.4951 134.035 19.5649 130.309 19.5649C126.583 19.5649 124.524 19.4951 124.524 19.3686C124.524 19.2606 124.855 19.1702 125.259 19.1676C126.44 19.1601 127.537 18.8317 127.907 18.3749C128.197 18.0164 128.25 17.5284 128.25 15.2214V12.4921L121.435 12.5437L114.621 12.5953L114.562 14.8531C114.465 18.5815 114.639 18.8916 116.947 19.1074C119.795 19.3737 117.962 19.5649 112.562 19.5649C109.434 19.5649 106.875 19.488 106.875 19.394Z" fill="#0B0B0B" fill-opacity="0.72"/>
<path d="M149.398 19.3966C149.398 19.304 149.926 19.1729 150.572 19.1054C151.895 18.9668 152.46 18.6899 152.618 18.1022C152.677 17.8809 152.727 15.2089 152.729 12.1645C152.731 6.70254 152.725 6.62257 152.29 6.12542C151.937 5.72247 151.603 5.59676 150.623 5.49753C147.54 5.18541 150.118 5.03674 158.614 5.03674H167.831V5.69649C167.831 6.05935 167.888 6.77324 167.958 7.28293L168.085 8.20963L167.517 8.14471C167.105 8.09762 166.932 7.96036 166.887 7.64477C166.806 7.07436 165.848 6.2816 164.932 6.02701C164.531 5.91549 162.637 5.82374 160.722 5.82315L157.242 5.82204V8.69266V11.5633L160.253 11.4823C163.58 11.3928 164.039 11.2492 164.491 10.1565C164.669 9.7252 164.872 9.55227 165.2 9.55227C165.658 9.55227 165.659 9.55486 165.617 11.9573C165.577 14.2725 165.56 14.3646 165.143 14.4239C164.799 14.4729 164.677 14.3556 164.547 13.8496C164.234 12.6428 163.725 12.4626 160.301 12.3474L157.242 12.2445V15.0136C157.242 17.5928 157.27 17.8096 157.662 18.1753C158.254 18.7274 159.318 18.8377 163.078 18.7368C166.91 18.634 167.629 18.4251 168.778 17.0792C169.317 16.4474 169.613 16.2461 169.86 16.3413C170.048 16.4132 170.159 16.5716 170.109 16.6933C170.058 16.815 169.816 17.5109 169.571 18.2397L169.127 19.5649H159.262C153.837 19.5649 149.398 19.4892 149.398 19.3966Z" fill="#0B0B0B" fill-opacity="0.72"/>
<path d="M193.802 14.0818C191.331 10.8501 189.271 8.24394 189.225 8.29028C189.178 8.33662 188.849 10.5169 188.492 13.1353C187.86 17.7809 187.853 17.908 188.203 18.387C188.573 18.8923 189.409 19.1392 190.824 19.161C191.228 19.1672 191.559 19.2606 191.559 19.3686C191.559 19.494 189.86 19.5649 186.853 19.5649C184.089 19.5649 182.146 19.4897 182.146 19.3827C182.146 19.2825 182.654 19.1438 183.274 19.0745C184.716 18.9133 185.328 18.6762 185.654 18.1525C185.997 17.6034 187.409 10.2936 187.563 8.27613C187.677 6.77718 187.66 6.68466 187.19 6.24842C186.844 5.9275 186.282 5.72702 185.304 5.57549C184.538 5.45679 183.911 5.287 183.911 5.1982C183.911 5.10939 185.671 5.03674 187.823 5.03674H191.734L196.01 10.5253C198.362 13.5439 200.33 16.014 200.384 16.0142C200.438 16.0144 202.423 13.5483 204.796 10.5339L209.11 5.05315L212.983 5.04495C216.807 5.03684 218.043 5.25349 215.601 5.50394C214.027 5.66538 213.175 5.95698 213.047 6.37837C212.992 6.5583 213.33 9.30631 213.798 12.485C214.769 19.0755 214.668 18.8426 216.658 19.0738C219.275 19.3779 217.596 19.5649 212.248 19.5649C206.9 19.5649 205.221 19.3779 207.838 19.0738C208.493 18.9978 209.208 18.7817 209.447 18.588L209.878 18.2392L209.317 13.2576C209.009 10.5178 208.704 8.21645 208.64 8.1435C208.575 8.07056 206.404 10.6955 203.816 13.9767C200.395 18.3127 198.998 19.9446 198.702 19.9501C198.397 19.9557 197.182 18.5007 193.802 14.0818Z" fill="#0B0B0B" fill-opacity="0.72"/>
<path d="M239.8 19.7335C237.44 19.4899 235.247 18.8947 233.427 18.004C231.363 16.994 230.353 16.0971 229.616 14.6217C226.792 8.96431 234.874 3.86683 245.139 4.83032C252.449 5.5164 256.961 8.45639 256.612 12.306C256.258 16.2133 251.927 19.0635 245.291 19.7564C243.157 19.9792 242.139 19.9749 239.8 19.7335ZM246.664 18.7363C249.91 17.9588 251.71 15.5591 251.533 12.2431C251.442 10.5453 250.919 9.38735 249.67 8.1193C247.659 6.07705 244.241 5.12434 240.668 5.61049C238.58 5.89463 237.044 6.49272 235.969 7.44033C234.553 8.68818 234.217 9.50603 234.214 11.712C234.211 13.3878 234.269 13.6922 234.786 14.712C235.101 15.3361 235.774 16.2343 236.279 16.7078C237.707 18.045 238.98 18.5906 241.761 19.058C242.504 19.1828 245.665 18.9754 246.664 18.7363Z" fill="#0B0B0B" fill-opacity="0.72"/>
<path d="M283.334 14.1516C278.319 10.9584 274.017 8.21757 273.774 8.06098L273.333 7.77626V12.7762C273.333 17.6958 273.34 17.7844 273.78 18.2958C274.156 18.7332 274.482 18.8493 275.839 19.0287C276.726 19.1459 277.451 19.3145 277.451 19.4034C277.451 19.4922 275.245 19.5649 272.549 19.5649C267.876 19.5649 266.33 19.3721 268.779 19.0947C270.289 18.9237 271.096 18.4139 271.359 17.4646C271.641 16.4498 271.638 7.29987 271.355 6.77232C271.092 6.27876 269.812 5.70263 268.578 5.5215C266.622 5.23453 267.79 5.03674 271.441 5.03674H275.235L283.256 10.2013C287.667 13.0418 291.387 15.4324 291.522 15.5137C291.715 15.6302 291.767 14.744 291.767 11.3339V7.00621L291.224 6.39791C290.768 5.88671 290.455 5.75391 289.263 5.56604C288.483 5.44308 287.845 5.27371 287.845 5.18962C287.845 5.10555 289.963 5.03674 292.551 5.03674C297.09 5.03674 298.542 5.23317 296.072 5.51296C295.16 5.61622 294.741 5.7771 294.258 6.20937L293.63 6.77148V13.3645V19.9576L293.041 19.9576C292.607 19.9575 290.074 18.4428 283.334 14.1516Z" fill="#0B0B0B" fill-opacity="0.72"/>
<path d="M314.122 19.3971C314.122 19.3048 314.735 19.1777 315.485 19.1148C316.234 19.0519 317.026 18.9051 317.243 18.7885C317.941 18.4149 318.053 17.3263 317.998 11.4831L317.946 5.92022L313.899 5.93211C309.422 5.94527 309.002 6.04658 308.597 7.21087C308.451 7.63092 308.27 7.78532 307.926 7.78532C307.365 7.78532 307.373 7.88125 307.782 5.97378C308.141 4.30294 308.273 4.20098 309.37 4.74868C309.893 5.01018 311.386 5.04233 320.764 4.9941C329.075 4.95135 331.612 4.88216 331.801 4.69317C331.936 4.55819 332.243 4.44775 332.483 4.44775C332.883 4.44775 332.905 4.50216 332.738 5.08454C332.638 5.43476 332.554 6.07527 332.553 6.50789C332.549 7.43289 332.403 7.71252 331.869 7.81578C331.579 7.87204 331.426 7.74309 331.281 7.31698C331.173 7.00091 330.836 6.55732 330.531 6.33124C330.024 5.95493 329.664 5.91427 326.266 5.84996L322.555 5.77972V11.8433C322.555 16.8565 322.604 17.9782 322.842 18.3184C323.154 18.7637 324.465 19.1723 325.583 19.1723C325.967 19.1723 326.281 19.2606 326.281 19.3686C326.281 19.4953 324.123 19.5649 320.201 19.5649C316.858 19.5649 314.122 19.4894 314.122 19.3971Z" fill="#0B0B0B" fill-opacity="0.72"/>
</svg>
