<svg width="150" height="21" viewBox="0 0 150 21" fill="none" xmlns="http://www.w3.org/2000/svg">
<path d="M1.08108 15.8272C1.02703 15.7003 1 15.5733 1 15.4464C1 15.3194 1.06306 15.2106 1.18919 15.1199C1.31532 15.0292 1.5856 14.9386 2.00003 14.8479C2.41445 14.739 2.81987 14.6483 3.21628 14.5758C3.61269 14.5032 3.95504 14.467 4.24334 14.467C4.38749 14.467 4.48659 14.5396 4.54064 14.6846C4.75687 15.1381 5.00012 15.5189 5.27039 15.8272C5.55869 16.1356 5.86501 16.3896 6.18934 16.589C6.53169 16.7704 6.88305 16.9065 7.24343 16.9972C7.60377 17.0697 7.96417 17.1059 8.32456 17.1059C9.13537 17.1059 9.8291 16.9156 10.4057 16.5346C11.0003 16.1538 11.2976 15.5371 11.2976 14.6846C11.2976 13.9592 11.0453 13.4059 10.5408 13.0251C10.0543 12.626 9.44166 12.2996 8.70291 12.0456C7.9822 11.7917 7.18937 11.5559 6.32448 11.3383C5.45959 11.1206 4.65776 10.8305 3.919 10.4677C3.19826 10.0868 2.58563 9.58802 2.08111 8.9714C1.59461 8.33656 1.35136 7.4841 1.35136 6.414C1.35136 5.5434 1.52254 4.77257 1.86489 4.10149C2.22526 3.4304 2.71176 2.86815 3.32439 2.41472C3.93702 1.94314 4.64875 1.58946 5.45959 1.35368C6.28844 1.11789 7.18036 1 8.13535 1C9.70293 1 11.0904 1.33554 12.2976 2.00662C13.5049 2.65957 14.3788 3.64805 14.9193 4.97208C14.9734 5.11718 15.0004 5.23507 15.0004 5.32575C15.0004 5.45272 14.9193 5.56154 14.7571 5.65223C14.613 5.72478 14.3337 5.8064 13.9193 5.89709C13.5049 5.98777 13.0995 6.06939 12.7031 6.14194C12.3246 6.21449 12.0003 6.25076 11.73 6.25076C11.5498 6.25076 11.4237 6.15101 11.3517 5.95149C10.9733 5.17159 10.4777 4.63654 9.8651 4.34634C9.25252 4.03801 8.6038 3.88384 7.91916 3.88384C7.16234 3.88384 6.51367 4.07428 5.97312 4.45516C5.43256 4.83605 5.16228 5.40738 5.16228 6.16915C5.16228 6.67699 5.30643 7.10322 5.59473 7.44782C5.88303 7.7743 6.25241 8.0554 6.70287 8.29125C7.17135 8.52702 7.70289 8.72648 8.29751 8.88971C8.89213 9.05302 9.49576 9.22532 10.1083 9.40663C10.739 9.58802 11.3517 9.79663 11.9463 10.0324C12.5589 10.2682 13.0904 10.5675 13.5409 10.9302C14.0094 11.2929 14.3878 11.7373 14.6761 12.2633C14.9644 12.7892 15.1085 13.4332 15.1085 14.1949C15.1085 15.0836 14.9283 15.8726 14.5679 16.5619C14.2076 17.2329 13.7121 17.7952 13.0814 18.2486C12.4688 18.702 11.739 19.0466 10.8922 19.2825C10.0633 19.5001 9.16242 19.6089 8.18937 19.6089C7.3966 19.6089 6.6398 19.5273 5.91906 19.3641C5.19832 19.2009 4.52262 18.965 3.89198 18.6567C3.27934 18.3484 2.72978 17.9584 2.24328 17.4869C1.75678 17.0152 1.36938 16.4621 1.08108 15.8272ZM24.1962 16.6162H24.3043L26.6827 4.56399L27.0882 1.51692C27.1423 1.24485 27.3314 1.10882 27.6558 1.10882H31.1153C31.4757 1.10882 31.6829 1.24485 31.737 1.51692L32.1694 4.56399L34.5749 16.6162H34.683L37.2506 4.50958L37.7371 1.48971C37.7912 1.21765 37.9624 1.08162 38.2506 1.08162C38.4128 1.08162 38.593 1.08162 38.7912 1.08162C39.0074 1.08162 39.2777 1.09975 39.602 1.13603L40.9805 1.19044C41.3949 1.24485 41.6021 1.38995 41.6021 1.62574C41.6021 1.68015 41.5931 1.74363 41.5751 1.81618C41.5571 1.87059 41.53 1.95221 41.494 2.06103L40.8454 4.40075L37.7101 17.0243C37.62 17.4596 37.5389 17.8224 37.4669 18.1126C37.4128 18.3846 37.3678 18.6114 37.3317 18.7927C37.2957 18.9559 37.2506 19.0829 37.1966 19.1736C37.1605 19.2462 37.1155 19.3096 37.0615 19.3641C36.9714 19.4366 36.8723 19.4819 36.7641 19.5001C36.656 19.5001 36.5028 19.5001 36.3047 19.5001H32.9802C32.6739 19.5001 32.4667 19.4548 32.3586 19.3641C32.3045 19.3096 32.2595 19.2462 32.2234 19.1736C32.1875 19.0829 32.1424 18.9559 32.0883 18.7927C32.0523 18.6295 32.0073 18.4119 31.9532 18.1398C31.9172 17.8496 31.8721 17.4778 31.818 17.0243L29.4126 5.38017H29.3045L26.899 17.0243C26.8449 17.4778 26.7909 17.8496 26.7368 18.1398C26.7008 18.4119 26.6647 18.6386 26.6287 18.8199C26.5926 18.9832 26.5476 19.1011 26.4935 19.1736C26.4575 19.2462 26.4125 19.3096 26.3584 19.3641C26.2683 19.4366 26.1692 19.4819 26.0611 19.5001C25.953 19.5001 25.7999 19.5001 25.6016 19.5001H22.2773C21.9709 19.5001 21.7637 19.4548 21.6556 19.3641C21.6016 19.3096 21.5565 19.2462 21.5205 19.1736C21.4844 19.0829 21.4394 18.9559 21.3853 18.7927C21.3493 18.6295 21.2952 18.4119 21.2231 18.1398C21.1691 17.8496 21.097 17.4778 21.0069 17.0243L17.8717 4.40075L17.25 2.06103C17.214 1.95221 17.178 1.87059 17.142 1.81618C17.1239 1.74363 17.1149 1.68015 17.1149 1.62574C17.1149 1.38995 17.3222 1.24485 17.7366 1.19044L19.1691 1.13603C19.4934 1.09975 19.7547 1.08162 19.9528 1.08162C20.1691 1.08162 20.3582 1.08162 20.5204 1.08162C20.8448 1.08162 21.0339 1.21765 21.088 1.48971L21.5745 4.50958L24.1962 16.6162ZM48.2072 19.2552C48.2072 19.3096 48.1802 19.355 48.1261 19.3912C48.0901 19.4094 48 19.4276 47.8559 19.4457C47.7297 19.4638 47.5405 19.4819 47.2883 19.5001C47.036 19.5001 46.6937 19.5001 46.2613 19.5001C45.8468 19.5001 45.5134 19.5001 45.2612 19.5001C45.0089 19.4819 44.8108 19.4638 44.6666 19.4457C44.5405 19.4276 44.4504 19.4094 44.3963 19.3912C44.3603 19.355 44.3422 19.3096 44.3422 19.2552L44.4504 16.0449V2.85001L44.3422 1.35368C44.3422 1.3174 44.3603 1.28113 44.3963 1.24485C44.4504 1.20858 44.5405 1.18137 44.6666 1.16324C44.8108 1.1451 45.0089 1.13603 45.2612 1.13603C45.5134 1.11789 45.8468 1.10882 46.2613 1.10882C46.6937 1.10882 47.036 1.11789 47.2883 1.13603C47.5405 1.13603 47.7297 1.1451 47.8559 1.16324C48 1.18137 48.0901 1.20858 48.1261 1.24485C48.1802 1.28113 48.2072 1.3174 48.2072 1.35368L48.0992 2.85001V16.0449L48.2072 19.2552ZM51.6189 15.8272C51.5648 15.7003 51.5378 15.5733 51.5378 15.4464C51.5378 15.3194 51.6008 15.2106 51.727 15.1199C51.8531 15.0292 52.1234 14.9386 52.5378 14.8479C52.9522 14.739 53.3576 14.6483 53.7541 14.5758C54.1505 14.5032 54.4928 14.467 54.7811 14.467C54.9253 14.467 55.0243 14.5396 55.0784 14.6846C55.2946 15.1381 55.5379 15.5189 55.8082 15.8272C56.0965 16.1356 56.4028 16.3896 56.7271 16.589C57.0695 16.7704 57.4208 16.9065 57.7812 16.9972C58.1416 17.0697 58.5019 17.1059 58.8623 17.1059C59.6731 17.1059 60.3669 16.9156 60.9435 16.5346C61.5381 16.1538 61.8354 15.5371 61.8354 14.6846C61.8354 13.9592 61.5831 13.4059 61.0786 13.0251C60.5921 12.626 59.9794 12.2996 59.2407 12.0456C58.52 11.7917 57.7271 11.5559 56.8623 11.3383C55.9974 11.1206 55.1955 10.8305 54.4568 10.4677C53.7361 10.0868 53.1234 9.58802 52.6189 8.9714C52.1324 8.33656 51.8892 7.4841 51.8892 6.414C51.8892 5.5434 52.0603 4.77257 52.4027 4.10149C52.763 3.4304 53.2496 2.86815 53.8622 2.41472C54.4748 1.94314 55.1865 1.58946 55.9974 1.35368C56.8262 1.11789 57.7181 1 58.6731 1C60.2407 1 61.6282 1.33554 62.8354 2.00662C64.0426 2.65957 64.9166 3.64805 65.4571 4.97208C65.5112 5.11718 65.5382 5.23507 65.5382 5.32575C65.5382 5.45272 65.4571 5.56154 65.2949 5.65223C65.1508 5.72478 64.8715 5.8064 64.4571 5.89709C64.0426 5.98777 63.6372 6.06939 63.2409 6.14194C62.8624 6.21449 62.5381 6.25076 62.2678 6.25076C62.0876 6.25076 61.9615 6.15101 61.8895 5.95149C61.511 5.17159 61.0155 4.63654 60.4029 4.34634C59.7903 4.03801 59.1416 3.88384 58.4569 3.88384C57.7002 3.88384 57.0514 4.07428 56.5109 4.45516C55.9703 4.83605 55.7 5.40738 55.7 6.16915C55.7 6.67699 55.8442 7.10322 56.1325 7.44782C56.4208 7.7743 56.7902 8.0554 57.2406 8.29125C57.7091 8.52702 58.2407 8.72648 58.8353 8.88971C59.4299 9.05302 60.0335 9.22532 60.6461 9.40663C61.2768 9.58802 61.8895 9.79663 62.4841 10.0324C63.0967 10.2682 63.6282 10.5675 64.0787 10.9302C64.5472 11.2929 64.9256 11.7373 65.2138 12.2633C65.5022 12.7892 65.6463 13.4332 65.6463 14.1949C65.6463 15.0836 65.4661 15.8726 65.1057 16.5619C64.7454 17.2329 64.2499 17.7952 63.6192 18.2486C63.0066 18.702 62.2768 19.0466 61.4299 19.2825C60.6011 19.5001 59.7002 19.6089 58.7272 19.6089C57.9344 19.6089 57.1776 19.5273 56.4568 19.3641C55.7361 19.2009 55.0604 18.965 54.4297 18.6567C53.8171 18.3484 53.2675 17.9584 52.7811 17.4869C52.2946 17.0152 51.9071 16.4621 51.6189 15.8272ZM68.5176 15.8272C68.4635 15.7003 68.4365 15.5733 68.4365 15.4464C68.4365 15.3194 68.4996 15.2106 68.6257 15.1199C68.7518 15.0292 69.0221 14.9386 69.4365 14.8479C69.851 14.739 70.2564 14.6483 70.6528 14.5758C71.0492 14.5032 71.3916 14.467 71.6798 14.467C71.824 14.467 71.9231 14.5396 71.9772 14.6846C72.1934 15.1381 72.4366 15.5189 72.7069 15.8272C72.9952 16.1356 73.3015 16.3896 73.6258 16.589C73.9682 16.7704 74.3196 16.9065 74.6799 16.9972C75.0403 17.0697 75.4007 17.1059 75.7611 17.1059C76.5715 17.1059 77.2654 16.9156 77.8424 16.5346C78.4369 16.1538 78.7342 15.5371 78.7342 14.6846C78.7342 13.9592 78.482 13.4059 77.9776 13.0251C77.4908 12.626 76.8779 12.2996 76.1394 12.0456C75.4187 11.7917 74.6259 11.5559 73.761 11.3383C72.8961 11.1206 72.0942 10.8305 71.3555 10.4677C70.6348 10.0868 70.0221 9.58802 69.5176 8.9714C69.0311 8.33656 68.7879 7.4841 68.7879 6.414C68.7879 5.5434 68.959 4.77257 69.3014 4.10149C69.6617 3.4304 70.1482 2.86815 70.7609 2.41472C71.3735 1.94314 72.0852 1.58946 72.8961 1.35368C73.725 1.11789 74.6169 1 75.5719 1C77.1393 1 78.5271 1.33554 79.7345 2.00662C80.9411 2.65957 81.8154 3.64805 82.3557 4.97208C82.4099 5.11718 82.4367 5.23507 82.4367 5.32575C82.4367 5.45272 82.3557 5.56154 82.1937 5.65223C82.0492 5.72478 81.7703 5.8064 81.3561 5.89709C80.9412 5.98777 80.5361 6.06939 80.1395 6.14194C79.7612 6.21449 79.4365 6.25076 79.1667 6.25076C78.9863 6.25076 78.8603 6.15101 78.7884 5.95149C78.4094 5.17159 77.9142 4.63654 77.3013 4.34634C76.6892 4.03801 76.0403 3.88384 75.3556 3.88384C74.5988 3.88384 73.9502 4.07428 73.4097 4.45516C72.8691 4.83605 72.5988 5.40738 72.5988 6.16915C72.5988 6.67699 72.7429 7.10322 73.0312 7.44782C73.3196 7.7743 73.6889 8.0554 74.1394 8.29125C74.6078 8.52702 75.1394 8.72648 75.734 8.88971C76.3285 9.05302 76.9322 9.22532 77.5451 9.40663C78.1755 9.58802 78.7884 9.79663 79.383 10.0324C79.9951 10.2682 80.527 10.5675 80.9771 10.9302C81.4455 11.2929 81.8246 11.7373 82.1127 12.2633C82.4008 12.7892 82.5452 13.4332 82.5452 14.1949C82.5452 15.0836 82.3648 15.8726 82.0041 16.5619C81.6442 17.2329 81.1482 17.7952 80.5178 18.2486C79.9057 18.702 79.1759 19.0466 78.3284 19.2825C77.5 19.5001 76.599 19.6089 75.6259 19.6089C74.8331 19.6089 74.0763 19.5273 73.3556 19.3641C72.6348 19.2009 71.9591 18.965 71.3285 18.6567C70.7159 18.3484 70.1663 17.9584 69.6798 17.4869C69.1933 17.0152 68.8059 16.4621 68.5176 15.8272Z" fill="#0B0B0B" fill-opacity="0.72"/>
<path d="M84.7614 8.23678C84.6713 8.23678 84.6086 8.12794 84.5719 7.91033C84.5543 7.67454 84.5452 7.40248 84.5452 7.09414C84.5452 6.76768 84.5543 6.49561 84.5719 6.27797C84.6086 6.06031 84.6713 5.95149 84.7614 5.95149H86.4098V4.99928L86.302 2.93162C86.302 2.87721 86.3204 2.84094 86.3563 2.8228C86.3922 2.78653 86.4732 2.75932 86.5993 2.74118C86.7254 2.72304 86.9058 2.71398 87.1396 2.71398C87.3925 2.69584 87.7257 2.68677 88.1399 2.68677C88.5725 2.68677 88.9056 2.69584 89.1403 2.71398C89.3924 2.71398 89.5812 2.72304 89.7073 2.74118C89.8334 2.75932 89.9151 2.78653 89.9511 2.8228C89.987 2.84094 90.0046 2.87721 90.0046 2.93162L89.8968 4.99928V5.95149H93.1943C93.2845 5.95149 93.338 6.06938 93.3563 6.30517C93.3746 6.52282 93.383 6.78581 93.383 7.09414C93.383 7.40248 93.3746 7.67454 93.3563 7.91033C93.338 8.12794 93.2845 8.23678 93.1943 8.23678H89.8968V15.4736C89.8968 15.7276 89.9151 15.9724 89.9511 16.2082C89.987 16.4439 90.0496 16.6526 90.1398 16.8339C90.2483 16.9972 90.392 17.1332 90.5724 17.242C90.7527 17.3327 90.9865 17.378 91.2754 17.378C91.4917 17.378 91.6896 17.3508 91.87 17.2964C92.0679 17.242 92.2933 17.1422 92.5455 16.9972C92.6532 16.9427 92.735 16.9156 92.7885 16.9156C92.8787 16.9156 92.9513 16.9881 93.0048 17.1332C93.059 17.2601 93.1133 17.4869 93.1668 17.8133C93.221 18.0854 93.257 18.2849 93.2753 18.4119C93.3112 18.5388 93.3296 18.6476 93.3296 18.7383C93.3296 18.8472 93.2845 18.9197 93.1943 18.9559C92.7618 19.1555 92.2933 19.3096 91.7889 19.4185C91.3022 19.5273 90.7527 19.5817 90.1398 19.5817C88.9866 19.5817 88.0773 19.3187 87.4101 18.7927C86.7437 18.2486 86.4098 17.3599 86.4098 16.1266V8.23678H84.7614ZM101.661 8.42724C100.688 8.42724 99.9582 8.81717 99.4714 9.59709C99.0029 10.377 98.7691 11.4925 98.7691 12.9435C98.7691 14.3763 99.0029 15.4917 99.4714 16.2898C99.9582 17.0697 100.688 17.4596 101.661 17.4596C102.652 17.4596 103.382 17.0697 103.85 16.2898C104.336 15.4917 104.58 14.3763 104.58 12.9435C104.58 11.4925 104.336 10.377 103.85 9.59709C103.382 8.81717 102.652 8.42724 101.661 8.42724ZM101.661 5.84267C102.778 5.84267 103.742 6.02404 104.552 6.38679C105.382 6.74954 106.057 7.24831 106.58 7.88312C107.12 8.49978 107.517 9.22532 107.769 10.0596C108.039 10.8939 108.175 11.7826 108.175 12.7258C108.175 13.6689 108.039 14.5576 107.769 15.392C107.517 16.2263 107.12 16.9609 106.58 17.5957C106.057 18.2123 105.382 18.702 104.552 19.0648C103.742 19.4276 102.778 19.6089 101.661 19.6089C100.544 19.6089 99.5799 19.4276 98.7691 19.0648C97.9583 18.702 97.282 18.2123 96.7417 17.5957C96.219 16.9609 95.8231 16.2263 95.5526 15.392C95.3004 14.5576 95.1743 13.6689 95.1743 12.7258C95.1743 11.7826 95.3004 10.8939 95.5526 10.0596C95.8231 9.22532 96.219 8.49978 96.7417 7.88312C97.282 7.24831 97.9583 6.74954 98.7691 6.38679C99.5799 6.02404 100.544 5.84267 101.661 5.84267ZM111.159 6.19634C111.159 6.14194 111.177 6.10566 111.213 6.08752C111.249 6.05124 111.33 6.02404 111.456 6.00591C111.582 5.98777 111.772 5.9787 112.024 5.9787C112.276 5.96056 112.609 5.95149 113.024 5.95149C113.457 5.95149 113.79 5.96056 114.024 5.9787C114.276 5.9787 114.456 5.98777 114.565 6.00591C114.691 6.02404 114.772 6.05124 114.808 6.08752C114.844 6.10566 114.862 6.14194 114.862 6.19634L114.754 7.80151V13.6508C114.754 14.1042 114.772 14.5758 114.808 15.0655C114.862 15.5552 115.006 15.9815 115.24 16.3442C115.421 16.6162 115.645 16.8429 115.916 17.0243C116.204 17.1876 116.583 17.2692 117.052 17.2692C118.06 17.2692 118.781 16.9065 119.214 16.1809C119.646 15.4555 119.862 14.4035 119.862 13.0251V7.80151L119.754 6.19634C119.754 6.14194 119.772 6.10566 119.808 6.08752C119.844 6.05124 119.925 6.02404 120.051 6.00591C120.177 5.98777 120.357 5.9787 120.592 5.9787C120.844 5.96056 121.187 5.95149 121.619 5.95149C122.052 5.95149 122.385 5.96056 122.619 5.9787C122.871 5.9787 123.06 5.98777 123.187 6.00591C123.313 6.02404 123.394 6.05124 123.43 6.08752C123.466 6.10566 123.484 6.14194 123.484 6.19634L123.376 7.80151V16.6162L123.484 19.2552C123.484 19.3096 123.466 19.355 123.43 19.3912C123.394 19.4094 123.313 19.4276 123.187 19.4457C123.079 19.4638 122.898 19.4819 122.646 19.5001C122.412 19.5001 122.078 19.5001 121.646 19.5001C121.232 19.5001 120.899 19.5001 120.646 19.5001C120.412 19.4819 120.231 19.4638 120.105 19.4457C119.979 19.4276 119.898 19.4094 119.862 19.3912C119.844 19.355 119.835 19.3096 119.835 19.2552L119.943 16.9972C119.637 17.7589 119.15 18.3846 118.484 18.8743C117.817 19.3641 116.97 19.6089 115.943 19.6089C115.132 19.6089 114.447 19.5001 113.889 19.2825C113.331 19.0466 112.853 18.7292 112.457 18.3302C112.042 17.8949 111.736 17.3689 111.538 16.7522C111.358 16.1356 111.267 15.4192 111.267 14.603V7.80151L111.159 6.19634ZM135.68 8.86255C135.68 9.26155 135.42 9.46109 134.897 9.46109C134.14 9.46109 133.5 9.56986 132.978 9.78755C132.473 10.0052 132.041 10.3136 131.681 10.7126C131.284 11.1479 131.005 11.6648 130.843 12.2633C130.68 12.8619 130.599 13.5692 130.599 14.3853V16.0449L130.708 19.2552C130.708 19.3096 130.689 19.355 130.653 19.3912C130.618 19.4094 130.537 19.4276 130.41 19.4457C130.284 19.4638 130.095 19.4819 129.843 19.5001C129.608 19.5001 129.275 19.5001 128.842 19.5001C128.428 19.5001 128.095 19.5001 127.843 19.5001C127.608 19.4819 127.428 19.4638 127.302 19.4457C127.176 19.4276 127.095 19.4094 127.059 19.3912C127.023 19.355 127.004 19.3096 127.004 19.2552L127.113 16.0449V7.69268L127.004 6.19634C127.004 6.14194 127.014 6.10566 127.032 6.08752C127.068 6.05124 127.149 6.02404 127.275 6.00591C127.401 5.98777 127.581 5.9787 127.815 5.9787C128.05 5.96056 128.383 5.95149 128.816 5.95149C129.23 5.95149 129.555 5.96056 129.788 5.9787C130.041 5.9787 130.221 5.98777 130.329 6.00591C130.456 6.02404 130.537 6.05124 130.572 6.08752C130.608 6.10566 130.627 6.14194 130.627 6.19634L130.518 7.69268V9.65148C130.789 8.50886 131.347 7.59292 132.194 6.90371C133.041 6.19634 134.032 5.84267 135.167 5.84267C135.509 5.84267 135.68 6.01498 135.68 6.35958V8.86255ZM137.635 16.8611C137.545 16.7522 137.5 16.6344 137.5 16.5074C137.5 16.3986 137.554 16.317 137.663 16.2626C137.77 16.19 138.041 16.1084 138.473 16.0177C139.05 15.9089 139.501 15.8182 139.825 15.7456C140.149 15.6731 140.383 15.6369 140.528 15.6369C140.635 15.6369 140.707 15.6549 140.744 15.6912C140.797 15.7276 140.852 15.8092 140.906 15.9361C141.41 16.9518 142.266 17.4596 143.474 17.4596C143.942 17.4596 144.375 17.3236 144.77 17.0516C145.185 16.7613 145.392 16.3261 145.392 15.7456C145.392 15.0927 145.14 14.6483 144.635 14.4126C144.149 14.1768 143.482 13.9772 142.635 13.814C141.986 13.7052 141.365 13.5782 140.771 13.4332C140.176 13.288 139.653 13.0795 139.203 12.8074C138.752 12.5353 138.392 12.1907 138.122 11.7736C137.87 11.3383 137.744 10.7942 137.744 10.1412C137.744 9.47017 137.879 8.87163 138.149 8.34563C138.419 7.8015 138.797 7.34807 139.284 6.98532C139.77 6.60444 140.347 6.32331 141.014 6.14194C141.698 5.94242 142.446 5.84267 143.257 5.84267C144.699 5.84267 145.861 6.10566 146.744 6.63164C147.645 7.15763 148.275 7.85591 148.636 8.72648C148.672 8.87163 148.69 8.96232 148.69 8.99855C148.69 9.08924 148.617 9.17086 148.474 9.2434C148.348 9.31594 148.023 9.40663 147.5 9.51548C147.032 9.62432 146.663 9.70594 146.392 9.76032C146.122 9.81478 145.933 9.84194 145.825 9.84194C145.662 9.84194 145.536 9.76032 145.447 9.59709C145.248 9.30694 144.969 9.04394 144.608 8.80809C144.266 8.55417 143.807 8.42724 143.23 8.42724C142.708 8.42724 142.257 8.55417 141.879 8.80809C141.518 9.04394 141.338 9.42478 141.338 9.95078C141.338 10.3861 141.5 10.7126 141.824 10.9302C142.167 11.1297 142.68 11.302 143.365 11.4471C144.05 11.5741 144.725 11.7192 145.392 11.8824C146.059 12.0275 146.653 12.2361 147.176 12.5082C147.716 12.7802 148.149 13.1429 148.474 13.5964C148.816 14.0317 148.987 14.6121 148.987 15.3376C148.987 16.0268 148.843 16.6344 148.555 17.1604C148.284 17.6863 147.897 18.1307 147.392 18.4935C146.888 18.8562 146.284 19.1373 145.581 19.3369C144.896 19.5182 144.14 19.6089 143.311 19.6089C141.978 19.6089 140.825 19.3822 139.851 18.9288C138.878 18.4753 138.139 17.7861 137.635 16.8611Z" fill="#0B0B0B" fill-opacity="0.72"/>
</svg>
